<svg width="407" height="500" viewBox="0 0 407 500" fill="none" xmlns="http://www.w3.org/2000/svg">
<path d="M294.648 120.89C299.377 120.89 307.436 121.642 318.827 123.146C330.218 124.651 342.681 128.949 356.222 136.041C369.975 142.918 382.441 154.416 393.617 170.535C392.971 171.18 389.856 173.544 384.269 177.627C378.68 181.496 372.447 187.298 365.57 195.035C358.694 202.557 352.675 212.229 347.517 224.049C342.359 235.655 339.78 249.515 339.78 265.635C339.78 284.117 343.005 299.807 349.451 312.702C356.115 325.597 363.744 336.02 372.34 343.972C381.151 351.709 388.888 357.403 395.55 361.057C402.429 364.711 406.081 366.644 406.512 366.861C406.297 367.719 403.502 375.349 398.129 389.748C392.971 404.147 384.376 420.159 372.34 437.781C361.809 453.04 350.418 467.117 338.169 480.012C326.132 492.907 311.626 499.354 294.648 499.354C283.257 499.354 273.909 497.743 266.601 494.518C259.296 491.081 251.773 487.749 244.036 484.526C236.299 481.087 225.876 479.368 212.765 479.368C200.086 479.368 189.447 481.087 180.851 484.526C172.469 487.963 164.41 491.403 156.673 494.842C149.151 498.279 140.232 500 129.916 500C114.227 500 100.473 493.767 88.6523 481.301C76.8321 468.838 64.6895 453.9 52.2243 436.493C37.825 415.861 25.4673 390.715 15.1514 361.057C5.05047 331.184 0 301.095 0 270.793C0 238.341 6.12497 211.154 18.3753 189.233C30.6253 167.096 46.3141 150.44 65.4415 139.265C84.7838 127.874 104.771 122.179 125.403 122.179C136.363 122.179 146.679 124.006 156.351 127.659C166.022 131.098 175.048 134.644 183.43 138.298C192.026 141.951 199.763 143.778 206.641 143.778C213.303 143.778 221.04 141.844 229.852 137.975C238.664 134.107 248.549 130.346 259.51 126.692C270.47 122.824 282.183 120.89 294.648 120.89ZM276.917 79.9483C268.537 90.0493 258.006 98.5384 245.326 105.416C232.646 112.078 220.611 115.409 209.22 115.409C206.856 115.409 204.599 115.194 202.449 114.765C202.234 114.12 202.02 112.938 201.805 111.218C201.591 109.499 201.483 107.672 201.483 105.738C201.483 92.8432 204.277 80.3781 209.864 68.3429C215.453 56.0928 221.793 45.9919 228.884 38.0399C237.911 27.2943 249.302 18.3751 263.057 11.2831C276.81 4.19074 289.92 0.429823 302.385 0C303.029 2.79396 303.353 6.12518 303.353 9.99365C303.353 22.8885 300.881 35.461 295.938 47.7111C290.994 59.7463 284.654 70.4922 276.917 79.9483Z" fill="black"/>
</svg>
