<svg width="500" height="500" viewBox="0 0 500 500" fill="none" xmlns="http://www.w3.org/2000/svg">
<g clip-path="url(#clip0_148_5)">
<path d="M500 250C500 111.93 388.07 0 250 0C111.93 0 0 111.93 0 250C0 367.24 80.72 465.62 189.61 492.64V326.4H138.06V250H189.61V217.08C189.61 131.99 228.12 92.55 311.66 92.55C327.5 92.55 354.83 95.66 366.01 98.76V168.01C360.11 167.39 349.86 167.08 337.13 167.08C296.14 167.08 280.3 182.61 280.3 222.98V250H361.96L347.93 326.4H280.3V498.17C404.09 483.22 500.01 377.82 500.01 250H500Z" fill="white"/>
</g>
<defs>
<clipPath id="clip0_148_5">
<rect width="500" height="500" fill="white"/>
</clipPath>
</defs>
</svg>
