<svg width="500" height="500" viewBox="0 0 500 500" fill="none" xmlns="http://www.w3.org/2000/svg">
<mask id="mask0_142_11" style="mask-type:luminance" maskUnits="userSpaceOnUse" x="0" y="0" width="500" height="500">
<path d="M500 0H0V500H500V0Z" fill="white"/>
</mask>
<g mask="url(#mask0_142_11)">
<path d="M490 255.682C490 237.955 488.41 220.91 485.455 204.545H250V301.25H384.545C378.75 332.5 361.138 358.977 334.66 376.705V439.432H415.455C462.727 395.91 490 331.817 490 255.682Z" fill="#4285F4"/>
<path d="M250.002 500C317.502 500 374.092 477.612 415.457 439.432L334.662 376.705C312.275 391.705 283.637 400.567 250.002 400.567C184.887 400.567 129.775 356.59 110.115 297.5H26.5923V362.272C67.7298 443.977 152.275 500 250.002 500Z" fill="#34A853"/>
<path d="M110.112 297.5C105.112 282.5 102.273 266.477 102.273 250C102.273 233.522 105.112 217.5 110.112 202.5V137.727H26.59C9.66001 171.477 0 209.66 0 250C0 290.34 9.66001 328.522 26.59 362.272L110.112 297.5Z" fill="#FBBC04"/>
<path d="M250.002 99.4325C286.707 99.4325 319.66 112.045 345.57 136.818L417.275 65.1125C373.98 24.7725 317.387 0 250.002 0C152.275 0 67.7298 56.0225 26.5923 137.727L110.115 202.5C129.775 143.41 184.887 99.4325 250.002 99.4325Z" fill="#E94235"/>
</g>
</svg>
